<?xml version="1.0" encoding="UTF-8"?>
<svg width="92px" height="31px" viewBox="0 0 92 31" version="1.1" xmlns="http://www.w3.org/2000/svg" xmlns:xlink="http://www.w3.org/1999/xlink">
    <!-- Generator: Sketch 61.1 (89650) - https://sketch.com -->
    <title>Combined Shape</title>
    <desc>Created with Sketch.</desc>
    <g id="WIP" stroke="none" stroke-width="1" fill="none" fill-rule="evenodd">
        <g id="2.2.2--flight-mission-" transform="translate(-66.000000, -16.000000)" fill="#FFFFFF">
            <g id="Group">
                <path d="M119.217452,39.300475 L120.688418,39.7260463 L121.28816,39.9399105 C121.069843,40.0998464 120.906735,40.2596283 120.688418,40.4194101 C120.253829,40.8491416 119.872403,41.274867 119.164603,41.644507 L120.688418,44.5302873 L121.396218,45.8111614 L120.688418,46.1310332 L118.78302,46.9821758 L116.604255,42.7716084 C115.183464,43.2555764 113.695511,43.5238311 112.19183,43.5669738 C110.568923,43.6295306 108.947274,43.4145878 107.399866,42.9315443 L105.547475,46.9821758 C104.947733,47.0362582 104.129673,46.9821758 103.584982,46.6105328 C103.272449,46.4339562 103.039504,46.1485984 102.932233,45.8111614 L103.584982,44.7419943 L105.16605,41.9662278 C104.674364,41.64651 104.239933,41.4346489 103.803299,41.0089235 L105.110998,39.4604109 C107.344815,40.7952133 109.794747,41.5406565 112.19183,41.5406565 C114.588755,41.5945848 116.98568,40.8491416 119.217452,39.300475 Z M121.614598,37.1661932 L134.415554,39.5142313 L128.75048,41.3807668 L120.688481,38.9806494 L119.980524,38.7667851 C120.253892,38.556927 120.472209,38.3412138 120.688481,38.0754244 C121.014855,37.8056288 121.288223,37.4359888 121.614598,37.1661932 Z M102.495725,37.1082126 C102.814235,37.5211493 103.179617,37.8972607 103.58495,38.2291508 C103.730495,38.3385482 103.876039,38.4691061 104.021584,38.5913778 L104.239901,38.7648899 L95.1475024,41.2688579 L89.7048351,39.4782843 L102.495725,37.1082126 Z M102.7139,29.4283299 C102.701789,30.8084321 102.999065,32.1742048 103.584966,33.4290392 C105.166034,36.6826105 108.705506,38.4429842 112.191814,38.552998 C115.733173,38.6049232 119.272645,36.8983237 120.688402,33.3231857 C121.135389,32.3058318 121.354761,31.1547715 121.390953,29.8307608 L121.396359,29.4283299 L158,29.4283299 L151.245543,33.6429034 L123.356651,32.3059439 C122.812117,34.28049 121.885842,35.9351643 120.686357,37.2160384 C118.454585,39.6720872 115.294652,40.7913305 112.189769,40.7372481 C109.03188,40.7372481 105.816738,39.4562199 103.583078,37.1621101 C102.364467,35.9683533 101.428383,34.4021317 100.866133,32.5933539 L100.751407,32.2020934 L72.7014503,33.6429034 L66,29.4283299 L102.7139,29.4283299 Z M101.079873,35.0298314 C101.406247,35.5654165 101.734667,36.0450702 102.118294,36.5247238 L86.8631597,39.1944828 L82.3425198,37.274019 L101.079873,35.0298314 Z M123.030276,34.9779062 L141.659572,37.1641594 L137.138932,39.1944828 L122.051153,36.5225667 C122.377528,36.0430671 122.867168,35.5634134 123.030276,34.9779062 Z M113.499451,25 L116.767442,27.7756125 L112.899708,29.5902227 L116.604333,36.794427 C116.022168,37.2088659 115.365941,37.5112352 114.670743,37.6864642 L114.370517,37.7537343 L110.882164,30.549376 L108.213758,31.7245506 L106.579683,28.0953302 L112.189706,25.5895133 L113.499451,25 Z M100.208807,32.893562 C100.312932,33.2205216 100.428452,33.5438517 100.555134,33.8629589 L100.753499,34.3383782 L79.7823286,36.794427 L74.6087825,34.3383782 L100.208807,32.893562 Z M124.011539,32.893562 L149.393246,34.3383782 L144.2197,36.6845673 L123.521899,34.3383782 L124.011539,32.893562 Z M111,16 C111.493085,16.1742118 111.932792,16.3444902 112.425877,16.514441 C115.827739,17.9300959 118.84359,19.8601919 120.982248,22.5894003 C122.407966,24.3492178 123.451476,26.5046582 124,29 L121.641648,29 C121.479134,28.2641479 121.258489,27.5433733 120.982248,26.8447235 C119.392114,22.531876 116.156568,19.4668633 112.425877,16.9139972 C111.932792,16.6270313 111.493085,16.2869659 111,16 Z" id="Combined-Shape"></path>
            </g>
        </g>
    </g>
</svg>