<svg xmlns="http://www.w3.org/2000/svg" width="163.839" height="163.839" fill-rule="evenodd" clip-rule="evenodd" image-rendering="optimizeQuality" shape-rendering="geometricPrecision" text-rendering="geometricPrecision" viewBox="0 0 4335 4335"><path fill="black" d="M459 3189h3375v551H459v-551zm88-41v-110H8l221 221L8 3511h414v-362h124zm3199 0v-110h539l-221 221 221 252h-414v-362h-124zM720 3524c0-8-3-14-9-19s-13-9-22-13-18-8-28-12-19-10-28-16-16-14-22-23-9-21-9-35c0-12 2-23 6-32s10-17 18-23 17-11 27-14 22-4 35-4c15 0 29 1 42 4s24 6 33 11l-16 42c-5-3-13-7-24-9-11-3-22-4-35-4-12 0-21 2-27 7s-9 11-9 19c0 7 3 13 9 18s13 9 22 14c9 4 18 8 28 13 10 4 19 10 28 16s16 14 22 23 9 21 9 34c0 14-2 25-7 35s-11 18-19 25-18 11-30 15c-12 3-24 5-38 5-18 0-34-2-48-5s-24-7-31-10l16-43c3 1 6 3 10 5s9 3 14 5c5 1 11 3 17 4s12 1 18 1c15 0 26-2 34-7s12-13 12-23zm211 12h-79l-19 57h-50l92-258h37l92 258h-53l-20-57zm-66-40h55l-19-57-8-40h-2l-8 41-19 57zm167-159h50v256h-50v-256zm164 122l-20-40h-2l6 40v133h-47v-258h37l97 136 19 39h2l-6-39v-134h47v258h-37l-96-135zm359-78h-75v211h-50v-211h-75v-45h199v45zm78-42c10-2 21-3 34-5 12-1 25-2 37-2 13 0 25 1 38 3s24 6 35 12c10 6 19 15 25 26s10 26 10 43c0 16-3 30-8 41-6 11-13 20-22 27s-20 12-32 15-24 5-37 5h-14c-3 0-6 0-9-1-3 0-5 0-6-1v88h-50v-253zm75 37c-5 0-10 0-14 1-4 0-8 1-11 1v83c1 0 2 1 4 1s4 0 6 1h11c7 0 13-1 20-2 6-1 12-3 17-7 5-3 9-8 12-14s5-14 5-23c0-8-1-15-4-20s-7-9-12-13c-5-3-10-5-16-7-6-1-12-2-19-2zm136-39h152v45h-102v60h92v45h-92v62h103v45h-153v-256zm374 45h-75v211h-50v-211h-75v-45h199v45zm27-45h152v45h-102v60h92v45h-92v62h103v45h-153v-256zm192 3l18-3c6-1 13-2 19-2 6-1 13-1 19-1h17c12 0 24 1 35 3 12 2 22 6 31 11s16 13 22 22c5 9 8 21 8 35 0 21-5 38-15 51s-23 22-39 27l18 11 58 98h-58l-58-100-26-5v105h-50v-253zm77 38h-15c-5 0-9 1-12 1v74h21c14 0 25-3 33-9s12-17 12-31c0-11-3-20-10-26s-17-9-30-9zm255 146c0-8-3-14-9-19s-13-9-22-13-18-8-28-12-19-10-28-16-16-14-22-23-9-21-9-35c0-12 2-23 6-32s10-17 18-23 17-11 27-14 22-4 35-4c15 0 29 1 42 4s24 6 33 11l-16 42c-5-3-13-7-24-9-11-3-22-4-35-4-12 0-21 2-27 7s-9 11-9 19c0 7 3 13 9 18s13 9 22 14c9 4 18 8 28 13 10 4 19 10 28 16s16 14 22 23 9 21 9 34c0 14-2 25-7 35s-11 18-19 25-18 11-30 15c-12 3-24 5-38 5-18 0-34-2-48-5s-24-7-31-10l16-43c3 1 6 3 10 5s9 3 14 5c5 1 11 3 17 4s12 1 18 1c15 0 26-2 34-7s12-13 12-23zm257-127c0 6-1 13-2 19-2 6-4 12-8 17s-8 10-14 14-13 7-21 9v2c7 1 14 3 21 6s12 7 17 12 9 11 12 19c3 7 4 16 4 26 0 13-3 25-8 34-6 10-13 17-22 24-9 6-20 11-32 14s-24 4-37 4h-16c-6 0-13 0-21-1-7 0-15-1-23-2s-15-2-21-3v-252c5-1 10-1 16-2s12-1 19-2 14-1 21-1h21c12 0 24 1 35 3s21 5 30 10 16 11 21 19 8 19 8 31zm-91 158c6 0 12-1 18-2s11-4 15-7 8-7 11-11c3-5 4-10 4-16 0-8-2-14-5-19s-7-8-12-11-11-4-17-5-13-1-19-1h-27v70c1 0 3 1 6 1s6 0 9 1h19zm-16-110h12c5 0 8-1 11-1 9-3 17-7 24-13s10-13 10-23c0-6-1-11-4-16-2-4-6-7-10-10-4-2-9-4-14-5s-10-1-16-1h-18c-5 0-10 1-12 1v68h16zm292-107h47v165c0 17-2 31-7 43-4 12-10 22-18 30s-17 14-28 17c-11 4-23 6-37 6-65 0-97-30-97-89v-171h50v161c0 10 1 18 3 25s5 13 9 17 9 7 15 9 13 3 20 3c15 0 26-4 33-13s10-22 10-41v-161zm92 3l18-3c6-1 13-2 19-2 6-1 13-1 19-1h17c12 0 24 1 35 3 12 2 22 6 31 11s16 13 22 22c5 9 8 21 8 35 0 21-5 38-15 51s-23 22-39 27l18 11 58 98h-58l-58-100-26-5v105h-50v-253zm77 38h-15c-5 0-9 1-12 1v74h21c14 0 25-3 33-9s12-17 12-31c0-11-3-20-10-26s-17-9-30-9zm223 81h95v114c-10 9-22 15-37 19-14 4-28 6-42 6-16 0-31-3-45-8s-26-13-36-24-18-25-24-41c-6-17-9-37-9-60 0-24 3-45 10-62s16-31 27-41c11-11 24-18 38-23s28-7 43-7 27 1 39 3c11 2 20 5 26 7l-10 42c-6-2-13-4-20-6-8-1-17-2-29-2-10 0-20 2-29 5s-16 8-23 16c-6 7-11 16-15 28-4 11-5 25-5 41 0 15 2 29 5 40s8 20 14 27 13 12 21 16c8 3 17 5 26 5 6 0 13-1 19-2 6-2 11-4 15-7v-48l-55-6v-30z"/><path fill="black" d="M2448 2610c14-15 30-27 49-35 8-4 54-54 102-107 24-39 50-59 82-93 12-13 23-25 33-36v-1l1-1 1-1 1-1 1-1c72-83 47-89-64-164l8-8 17-15c267-208 113-105 227-285 141 176 75 217 97 335 26 136 56 206 86 273v1c66 144 284 88 284 88v-17c-42-20-58-40-79-82-50-96-106-102-138-349-14-105-33-156-82-240-49-86-89-102-200-105-2-3-5-7-7-9-1-2-5-6-6-9-2-2-4-6-6-9s-4-6-6-8l-107-99c-1-5-5-5-8-8 59-20 95 15 76-61-7-29-47-53-67-75-55-60-45-116-58-213-22-151-43-275-126-391 6-14 71-57 45-158-16-62-63-83-119-85-29 34-38 60-45 119-13 115 34 44 15 91-12 65-66 55-110 124-32 50-44 93-74 140-23-73 12-91-82-204-67-81-63-70-151-90-68-15-55-36-90-48l5 78c-86 36-102 62-156 114-81 77-111 24-122 149 27 29 58 69 113 46 56-23-5-51 102-4-13 34-34 67-52 106-15 33-32 87-46 117-18 36-46 56-56 103-26 132 24 177-118 176-157-1-140 106-148 126-21 56-33 27-69 66-40 137 54 212 181 248-1-91 4-88-68-122 20-67-15-169 55-214 44-28 184-5 235 26-76 88-68 40-151 81 31 40 10 17 74 28 37 6 56 15 97 11 20-34 13-52 29-92 63 3 100 20 129 52-31 60-79 44-126 79 48 18 107 23 157 27l26-61c109 55 156 74 306 72-32 114 25 113 154 275 20 25 29 47 49 77-138 181-236 118-314 222-180-23-245-79-463-52-158 19-304 23-472 37-235 20-340-30-408 104-47 93-42 94-10 192 14 42 40 161 54 189 100 67 115-6 213 121h2177c-5-14-7-31-4-54 13-108-283-256-458-350-126-68-256-96-319-107-28-2-56-7-95-28zm-547-1475c-3-4-12-6-14-7l-17-19c43 14 29-15 30 26z"/></svg>